<svg width="934" height="248" viewBox="0 0 934 248" fill="none" xmlns="http://www.w3.org/2000/svg">
<rect x="162" width="46" height="19" fill="#912D27"/>
<path d="M38.3127 232.268L22.3047 133.184V248H0.500703V47.072H26.1687L44.1087 157.196L62.0487 47.072H87.7167V248H65.9127V133.184L49.9047 232.268H38.3127ZM104.27 65.012C104.27 60.044 106.018 55.812 109.514 52.316C113.01 48.82 117.242 47.072 122.21 47.072H142.91C147.878 47.072 152.11 48.82 155.606 52.316C159.102 55.812 160.85 60.044 160.85 65.012V248H139.046V157.196H126.074V248H104.27V65.012ZM139.046 66.668H126.074V137.324H139.046V66.668ZM177.313 248V47.072H223.129V66.668H199.117V137.324H219.265V157.196H199.117V228.404H223.129V248H177.313ZM235.532 248V47.072H257.336V228.404H279.968V248H235.532ZM292.403 248V47.072H314.207V228.404H336.839V248H292.403ZM349.274 248V47.072H395.09V66.668H371.078V137.324H391.226V157.196H371.078V228.404H395.09V248H349.274ZM473.625 47.072C478.593 47.072 482.825 48.82 486.321 52.316C489.817 55.812 491.565 59.952 491.565 64.736V131.528C491.565 133 491.473 134.656 491.289 136.496C491.105 138.152 490.553 139.808 489.633 141.464C488.897 142.936 487.701 144.224 486.045 145.328C484.389 146.432 482.181 147.168 479.421 147.536C485.125 148.456 488.529 150.48 489.633 153.608C490.921 156.552 491.565 159.496 491.565 162.44V248H469.761V157.196H456.789V248H434.985V47.072H473.625ZM469.761 137.324V66.668H456.789V137.324H469.761ZM508.028 65.012C508.028 60.044 509.776 55.812 513.272 52.316C516.768 48.82 521 47.072 525.968 47.072H546.668C551.636 47.072 555.868 48.82 559.364 52.316C562.86 55.812 564.608 60.044 564.608 65.012V248H542.804V157.196H529.832V248H508.028V65.012ZM542.804 66.668H529.832V137.324H542.804V66.668ZM615.847 137.324V66.668H602.875V137.324H615.847ZM602.875 157.196V228.404H615.847V157.196H602.875ZM637.651 132.356C637.651 133.828 637.559 135.392 637.375 137.048C637.191 138.52 636.639 139.992 635.719 141.464C634.983 142.936 633.787 144.224 632.131 145.328C630.659 146.432 628.543 147.168 625.783 147.536C628.543 147.904 630.659 148.64 632.131 149.744C633.787 150.848 634.983 152.136 635.719 153.608C636.639 155.08 637.191 156.644 637.375 158.3C637.559 159.956 637.651 161.428 637.651 162.716V230.336C637.651 235.12 635.903 239.26 632.407 242.756C628.911 246.252 624.771 248 619.987 248H581.071V47.072H619.987C624.771 47.072 628.911 48.82 632.407 52.316C635.903 55.812 637.651 60.044 637.651 65.012V132.356ZM688.614 228.404V66.668H675.918V228.404H688.614ZM710.142 229.232C710.142 235.12 708.394 239.72 704.898 243.032C701.586 246.344 697.078 248 691.374 248H672.882C667.178 248 662.578 246.344 659.082 243.032C655.77 239.72 654.114 235.12 654.114 229.232V65.84C654.114 60.32 655.77 55.812 659.082 52.316C662.578 48.82 667.178 47.072 672.882 47.072H691.374C697.078 47.072 701.586 48.82 704.898 52.316C708.394 55.812 710.142 60.32 710.142 65.84V229.232ZM782.646 47.072V229.232C782.646 235.12 780.898 239.72 777.402 243.032C774.09 246.344 769.582 248 763.878 248H745.386C739.498 248 734.898 246.344 731.586 243.032C728.274 239.72 726.618 235.12 726.618 229.232V47.072H748.422V228.404H760.842V47.072H782.646ZM799.122 65.012C799.122 60.044 800.87 55.812 804.366 52.316C807.862 48.82 812.094 47.072 817.062 47.072H837.762C842.73 47.072 846.962 48.82 850.458 52.316C853.954 55.812 855.702 60.044 855.702 65.012V248H833.898V157.196H820.926V248H799.122V65.012ZM833.898 66.668H820.926V137.324H833.898V66.668ZM891.485 47.072L911.909 148.088V47.072H933.437V248H914.117L893.693 144.224V248H872.165V47.072H891.485Z" fill="#912D27"/>
</svg>

