<svg width="934" height="242" viewBox="0 0 934 242" fill="none" xmlns="http://www.w3.org/2000/svg">
<path d="M38.3127 226.268L22.3047 127.184V242H0.500703V41.072H26.1687L44.1087 151.196L62.0487 41.072H87.7167V242H65.9127V127.184L49.9047 226.268H38.3127ZM104.27 59.012C104.27 54.044 106.018 49.812 109.514 46.316C113.01 42.82 117.242 41.072 122.21 41.072H142.91C147.878 41.072 152.11 42.82 155.606 46.316C159.102 49.812 160.85 54.044 160.85 59.012V242H139.046V151.196H126.074V242H104.27V59.012ZM139.046 60.668H126.074V131.324H139.046V60.668ZM177.313 242V41.072H223.129V60.668H199.117V131.324H219.265V151.196H199.117V222.404H223.129V242H177.313ZM235.532 242V41.072H257.336V222.404H279.968V242H235.532ZM292.403 242V41.072H314.207V222.404H336.839V242H292.403ZM349.274 242V41.072H395.09V60.668H371.078V131.324H391.226V151.196H371.078V222.404H395.09V242H349.274ZM473.625 41.072C478.593 41.072 482.825 42.82 486.321 46.316C489.817 49.812 491.565 53.952 491.565 58.736V125.528C491.565 127 491.473 128.656 491.289 130.496C491.105 132.152 490.553 133.808 489.633 135.464C488.897 136.936 487.701 138.224 486.045 139.328C484.389 140.432 482.181 141.168 479.421 141.536C485.125 142.456 488.529 144.48 489.633 147.608C490.921 150.552 491.565 153.496 491.565 156.44V242H469.761V151.196H456.789V242H434.985V41.072H473.625ZM469.761 131.324V60.668H456.789V131.324H469.761ZM508.028 59.012C508.028 54.044 509.776 49.812 513.272 46.316C516.768 42.82 521 41.072 525.968 41.072H546.668C551.636 41.072 555.868 42.82 559.364 46.316C562.86 49.812 564.608 54.044 564.608 59.012V242H542.804V151.196H529.832V242H508.028V59.012ZM542.804 60.668H529.832V131.324H542.804V60.668ZM615.847 131.324V60.668H602.875V131.324H615.847ZM602.875 151.196V222.404H615.847V151.196H602.875ZM637.651 126.356C637.651 127.828 637.559 129.392 637.375 131.048C637.191 132.52 636.639 133.992 635.719 135.464C634.983 136.936 633.787 138.224 632.131 139.328C630.659 140.432 628.543 141.168 625.783 141.536C628.543 141.904 630.659 142.64 632.131 143.744C633.787 144.848 634.983 146.136 635.719 147.608C636.639 149.08 637.191 150.644 637.375 152.3C637.559 153.956 637.651 155.428 637.651 156.716V224.336C637.651 229.12 635.903 233.26 632.407 236.756C628.911 240.252 624.771 242 619.987 242H581.071V41.072H619.987C624.771 41.072 628.911 42.82 632.407 46.316C635.903 49.812 637.651 54.044 637.651 59.012V126.356ZM688.614 222.404V60.668H675.918V222.404H688.614ZM710.142 223.232C710.142 229.12 708.394 233.72 704.898 237.032C701.586 240.344 697.078 242 691.374 242H672.882C667.178 242 662.578 240.344 659.082 237.032C655.77 233.72 654.114 229.12 654.114 223.232V59.84C654.114 54.32 655.77 49.812 659.082 46.316C662.578 42.82 667.178 41.072 672.882 41.072H691.374C697.078 41.072 701.586 42.82 704.898 46.316C708.394 49.812 710.142 54.32 710.142 59.84V223.232ZM782.646 41.072V223.232C782.646 229.12 780.898 233.72 777.402 237.032C774.09 240.344 769.582 242 763.878 242H745.386C739.498 242 734.898 240.344 731.586 237.032C728.274 233.72 726.618 229.12 726.618 223.232V41.072H748.422V222.404H760.842V41.072H782.646ZM799.122 59.012C799.122 54.044 800.87 49.812 804.366 46.316C807.862 42.82 812.094 41.072 817.062 41.072H837.762C842.73 41.072 846.962 42.82 850.458 46.316C853.954 49.812 855.702 54.044 855.702 59.012V242H833.898V151.196H820.926V242H799.122V59.012ZM833.898 60.668H820.926V131.324H833.898V60.668ZM891.485 41.072L911.909 142.088V41.072H933.437V242H914.117L893.693 138.224V242H872.165V41.072H891.485Z" fill="white"/>
<rect x="177" width="46" height="19" fill="#F7C89F"/>
</svg>
